<?xml version="1.0" encoding="UTF-8" standalone="no"?>
<svg
   xmlns:dc="http://purl.org/dc/elements/1.1/"
   xmlns:cc="http://creativecommons.org/ns#"
   xmlns:rdf="http://www.w3.org/1999/02/22-rdf-syntax-ns#"
   xmlns:svg="http://www.w3.org/2000/svg"
   xmlns="http://www.w3.org/2000/svg"
   xmlns:xlink="http://www.w3.org/1999/xlink"
   width="248"
   height="240"
   id="svg11300"
   version="1.0"
   style="enable-background:new">
  <title
     id="title4872">Firewall</title>
  <defs
     id="defs3">
    <linearGradient
       id="linearGradient15276">
      <stop
         style="stop-color:#ffff4c;stop-opacity:1;"
         offset="0"
         id="stop15278" />
      <stop
         style="stop-color:#ffff4c;stop-opacity:0;"
         offset="1"
         id="stop15280" />
    </linearGradient>
    <linearGradient
       id="linearGradient15264">
      <stop
         style="stop-color:#cc0000;stop-opacity:1;"
         offset="0"
         id="stop15266" />
      <stop
         style="stop-color:#ff4c4c;stop-opacity:1"
         offset="1"
         id="stop15268" />
    </linearGradient>
    <filter
       style="color-interpolation-filters:sRGB"
       id="filter4608-0-4"
       x="-0.15294158"
       width="1.3058832"
       y="-1.2776994"
       height="3.5553987">
      <feGaussianBlur
         stdDeviation="12.776994"
         id="feGaussianBlur4610-6-6" />
    </filter>
    <filter
       style="color-interpolation-filters:sRGB"
       id="filter4568-9"
       x="-0.076470785"
       width="1.1529416"
       y="-0.63884968"
       height="2.2776995">
      <feGaussianBlur
         stdDeviation="6.388497"
         id="feGaussianBlur4570-5" />
    </filter>
    <clipPath
       clipPathUnits="userSpaceOnUse"
       id="clipPath4315-9">
      <rect
         y="60.00013"
         x="56.000088"
         width="183.99991"
         style="fill:url(#radialGradient4319);fill-rule:evenodd;enable-background:new"
         ry="25.053387"
         rx="25.053392"
         id="rect4317-6"
         height="183.99988" />
    </clipPath>
    <radialGradient
       xlink:href="#linearGradient11520-9-3"
       id="radialGradient4622-7"
       gradientUnits="userSpaceOnUse"
       gradientTransform="matrix(13.339021,1.2973092e-6,-3.2847942e-7,3.3774477,-169.04322,33.20622)"
       cx="17.320858"
       cy="6.8678637"
       fx="17.320858"
       fy="6.8678637"
       r="20.530962" />
    <linearGradient
       id="linearGradient11520-9-3">
      <stop
         id="stop11522-2-3"
         offset="0.0000000"
         style="stop-color:#ffffff;stop-opacity:1" />
      <stop
         id="stop11524-8-1"
         offset="1.0000000"
         style="stop-color:#d4d4d4;stop-opacity:1" />
    </linearGradient>
    <radialGradient
       xlink:href="#linearGradient4205-6"
       id="radialGradient4624-2"
       gradientUnits="userSpaceOnUse"
       gradientTransform="matrix(1.5655573,0,0,0.95658347,-83.702508,9.332189)"
       cx="176.67326"
       cy="214.94498"
       fx="176.67326"
       fy="214.94498"
       r="91.999954" />
    <linearGradient
       id="linearGradient4205-6">
      <stop
         style="stop-color:#eeeeec;stop-opacity:1;"
         offset="0"
         id="stop4207-5" />
      <stop
         style="stop-color:#eeeeec;stop-opacity:0;"
         offset="1"
         id="stop4209-2" />
    </linearGradient>
    <linearGradient
       xlink:href="#linearGradient4085-01"
       id="linearGradient4626-1"
       gradientUnits="userSpaceOnUse"
       gradientTransform="translate(0,1)"
       x1="131.5"
       y1="234.5"
       x2="131.5"
       y2="206.98183" />
    <linearGradient
       id="linearGradient4085-01">
      <stop
         style="stop-color:#ffffff;stop-opacity:1;"
         offset="0"
         id="stop4087-9" />
      <stop
         style="stop-color:#ffffff;stop-opacity:0;"
         offset="1"
         id="stop4089-6" />
    </linearGradient>
    <filter
       style="color-interpolation-filters:sRGB"
       id="filter4105-6"
       x="-0.036813226"
       width="1.0736265"
       y="-0.16209599"
       height="1.324192">
      <feGaussianBlur
         stdDeviation="2.6382812"
         id="feGaussianBlur4107-6" />
    </filter>
    <radialGradient
       xlink:href="#linearGradient4085-0-9"
       id="radialGradient4628-9"
       gradientUnits="userSpaceOnUse"
       gradientTransform="matrix(2.0831076,0,0,0.225958,-158.48028,172.9742)"
       cx="132.00293"
       cy="272.15036"
       fx="132.00293"
       fy="272.15036"
       r="92.331871" />
    <linearGradient
       id="linearGradient4085-0-9">
      <stop
         style="stop-color:#ffffff;stop-opacity:1;"
         offset="0"
         id="stop4087-8-1" />
      <stop
         style="stop-color:#ffffff;stop-opacity:0;"
         offset="1"
         id="stop4089-1-5" />
    </linearGradient>
    <filter
       style="color-interpolation-filters:sRGB"
       id="filter4155-7">
      <feGaussianBlur
         stdDeviation="0.98531245"
         id="feGaussianBlur4157-5" />
    </filter>
    <radialGradient
       xlink:href="#linearGradient4238-2"
       id="radialGradient4630-0"
       gradientUnits="userSpaceOnUse"
       gradientTransform="matrix(4.0735165,0.53628862,-0.11022212,0.8372201,-438.12668,-54.628172)"
       cx="148"
       cy="152"
       fx="148"
       fy="152"
       r="90" />
    <linearGradient
       id="linearGradient4238-2">
      <stop
         style="stop-color:#ffffff;stop-opacity:1;"
         offset="0"
         id="stop4240-3" />
      <stop
         style="stop-color:#ffffff;stop-opacity:0;"
         offset="1"
         id="stop4242-7" />
    </linearGradient>
    <filter
       style="color-interpolation-filters:sRGB"
       id="filter4246-8">
      <feGaussianBlur
         stdDeviation="0.83"
         id="feGaussianBlur4248-9" />
    </filter>
    <linearGradient
       xlink:href="#linearGradient4538-3"
       id="linearGradient4632-8"
       gradientUnits="userSpaceOnUse"
       x1="195.48103"
       y1="234.23958"
       x2="100.51903"
       y2="69.760551" />
    <linearGradient
       id="linearGradient4538-3">
      <stop
         style="stop-color:#2e3436;stop-opacity:1"
         offset="0"
         id="stop4540-0" />
      <stop
         style="stop-color:#babdb6;stop-opacity:1"
         offset="1"
         id="stop4542-5" />
    </linearGradient>
    <filter
       style="color-interpolation-filters:sRGB"
       id="filter4321-0">
      <feGaussianBlur
         stdDeviation="0.91999947"
         id="feGaussianBlur4323-4" />
    </filter>
    <filter
       id="filter15260">
      <feGaussianBlur
         stdDeviation="2.1718829"
         id="feGaussianBlur15262" />
    </filter>
    <linearGradient
       gradientTransform="translate(-18,-30)"
       xlink:href="#linearGradient15264"
       id="linearGradient15270"
       x1="155"
       y1="162.95799"
       x2="230.13904"
       y2="138.95799"
       gradientUnits="userSpaceOnUse" />
    <radialGradient
       xlink:href="#linearGradient15276"
       id="radialGradient15282"
       cx="192.5"
       cy="162"
       fx="192.5"
       fy="162"
       r="35.5"
       gradientTransform="matrix(1,0,0,0.50704225,-18,46.85916)"
       gradientUnits="userSpaceOnUse" />
    <linearGradient
       id="linearGradient4788-0">
      <stop
         style="stop-color:#ffffff;stop-opacity:1;"
         offset="0"
         id="stop4790-7" />
      <stop
         style="stop-color:#ffffff;stop-opacity:0;"
         offset="1"
         id="stop4792-63" />
    </linearGradient>
    <radialGradient
       xlink:href="#linearGradient4788-7-5"
       id="radialGradient5152-4"
       gradientUnits="userSpaceOnUse"
       gradientTransform="matrix(-10.298767,4.5253845e-6,0.73688678,-7.3385946,3363.0701,457.59388)"
       cx="326.0206"
       cy="58"
       fx="326.0206"
       fy="58"
       r="12.5" />
    <linearGradient
       id="linearGradient4788-7-5">
      <stop
         style="stop-color:#ffffff;stop-opacity:1;"
         offset="0"
         id="stop4790-8-0" />
      <stop
         style="stop-color:#ffffff;stop-opacity:0;"
         offset="1"
         id="stop4792-6-1" />
    </linearGradient>
    <radialGradient
       r="12.5"
       fy="58"
       fx="327.5"
       cy="58"
       cx="327.5"
       gradientTransform="matrix(28.198876,2.5856001e-7,-6.9349178e-8,6.4015838,-9099.3849,-340.29191)"
       gradientUnits="userSpaceOnUse"
       id="radialGradient19214"
       xlink:href="#linearGradient4788-0" />
  </defs>
  <metadata
     id="metadata4">
    <rdf:RDF>
      <cc:Work
         rdf:about="">
        <dc:format>image/svg+xml</dc:format>
        <dc:type
           rdf:resource="http://purl.org/dc/dcmitype/StillImage" />
        <dc:creator>
          <cc:Agent>
            <dc:title>Lapo Calamandrei</dc:title>
          </cc:Agent>
        </dc:creator>
        <dc:source />
        <cc:license
           rdf:resource="" />
        <dc:title>Firewall</dc:title>
        <dc:subject>
          <rdf:Bag />
        </dc:subject>
        <dc:date />
        <dc:rights>
          <cc:Agent>
            <dc:title />
          </cc:Agent>
        </dc:rights>
        <dc:publisher>
          <cc:Agent>
            <dc:title />
          </cc:Agent>
        </dc:publisher>
        <dc:identifier />
        <dc:relation />
        <dc:language />
        <dc:coverage />
        <dc:description />
        <dc:contributor>
          <cc:Agent>
            <dc:title />
          </cc:Agent>
        </dc:contributor>
      </cc:Work>
      <cc:Work
         rdf:about="">
        <dc:format>image/svg+xml</dc:format>
        <dc:type
           rdf:resource="http://purl.org/dc/dcmitype/StillImage" />
      </cc:Work>
    </rdf:RDF>
  </metadata>
  <g
     style="enable-background:new"
     id="g4612"
     transform="translate(-23.750004,-31.678085)">
    <rect
       style="opacity:0.5;filter:url(#filter4608-0-4)"
       id="rect4550-5"
       width="200.5"
       height="24"
       x="47.5"
       y="222"
       rx="25.040651"
       ry="12"
       transform="matrix(0.94655935,0,0,0.68862801,7.8958598,80.83692)" />
    <rect
       transform="matrix(0.94655935,0,0,0.68862801,7.8958593,76.836915)"
       ry="12"
       rx="25.040651"
       y="222"
       x="47.5"
       height="24"
       width="200.5"
       id="rect4550"
       style="opacity:0.5;filter:url(#filter4568-9)" />
    <g
       clip-path="url(#clipPath4315-9)"
       id="g4288">
      <rect
         y="60.000122"
         x="56.000088"
         width="183.99991"
         style="fill:url(#radialGradient4622-7);fill-rule:evenodd"
         ry="25.053387"
         rx="25.053392"
         id="rect11518-2"
         height="183.99988" />
      <rect
         y="60.00013"
         x="56.000088"
         width="183.99991"
         style="fill:url(#radialGradient4624-2);fill-rule:evenodd;enable-background:new"
         ry="25.053387"
         rx="25.053392"
         id="rect11518-2-8"
         height="183.99988" />
      <path
         style="fill:url(#linearGradient4626-1);fill-rule:evenodd;filter:url(#filter4105-6);enable-background:new"
         d="m 62,189.9375 0,30 C 62,230.59424 70.405762,239 81.0625,239 l 133.875,0 C 225.59424,239 234,230.59424 234,219.9375 l 0,-30 C 234,200.59424 225.59424,209 214.9375,209 l -133.875,0 C 70.405762,209 62,200.59424 62,189.9375 Z"
         id="path4060" />
      <path
         style="fill:url(#radialGradient4628-9);fill-rule:evenodd;filter:url(#filter4155-7);enable-background:new"
         d="m 62,212.9375 0,6 C 62,229.59424 70.405762,238 81.0625,238 l 133.87499,0 c 10.65674,0 19.0625,-8.40576 19.0625,-19.0625 l 0,-6 c 0,10.65674 -8.40576,19.0625 -19.0625,19.0625 L 81.0625,232 C 70.405762,232 62,223.59424 62,212.9375 Z"
         id="path4060-9"
         transform="matrix(1,0,0,-1,0,300.9375)" />
      <path
         style="fill:url(#radialGradient4630-0);filter:url(#filter4246-8)"
         d="m 60,76 c -1.108,0 -2,0.892 -2,2 l 0,148 c 0,1.108 0.892,2 2,2 1.108,0 2,-0.892 2,-2 L 62,78 c 0,-1.108 -0.892,-2 -2,-2 z m 176,0 c -1.108,0 -2,0.892 -2,2 l 0,148 c 0,1.108 0.892,2 2,2 1.108,0 2,-0.892 2,-2 l 0,-148 c 0,-1.108 -0.892,-2 -2,-2 z"
         id="rect4213" />
      <rect
         y="60.00013"
         x="56.000088"
         width="183.99991"
         style="fill:none;stroke:url(#linearGradient4632-8);stroke-width:2;filter:url(#filter4321-0);enable-background:new"
         ry="25.053387"
         rx="25.053392"
         id="rect11518-2-8-3"
         height="183.99988" />
    </g>
    <g
       id="g19245"
       style="opacity:0.42127662">
      <rect
         y="213.67809"
         x="83.75"
         height="1"
         width="129"
         id="rect4626-5-3"
         style="opacity:0.33516487;enable-background:new" />
      <rect
         style="opacity:0.33516487;enable-background:new"
         id="rect4628-1"
         width="129"
         height="1"
         x="83.75"
         y="215.67809" />
      <rect
         y="217.67809"
         x="83.75"
         height="1"
         width="82.928574"
         id="rect4630-2-1"
         style="opacity:0.33516487;enable-background:new" />
    </g>
  </g>
  <path
     xlink:href="#path15242"
     style="opacity:0.16595746;filter:url(#filter15260)"
     id="path15246"
     d="m 133.5,77.625 c -8.69379,-0.599702 -17.56214,1.135194 -25.65625,4.46875 -12.164778,5.010057 -22.922328,13.691817 -29.75,24.9375 -6.827672,11.24568 -9.584898,25.06354 -6.875,37.9375 1.883519,8.94807 6.314889,17.28105 12.34375,24.15625 2.404493,2.74204 5.124048,5.18967 7.96875,7.46875 C 79.419542,184.40633 66.917108,191.60632 54,198 c 16.422813,-2.95579 32.445757,-7.93538 47.71875,-14.65625 1.24336,0.67903 2.47115,1.39333 3.75,2 16.52331,7.83853 35.33772,9.58618 53.59375,8.5 24.61044,-1.46425 48.91598,-7.8547 71.0625,-18.6875 L 230,137 c -20.53591,23.17851 -50.2286,38.0194 -81.09375,40.53125 -10.00777,0.81445 -20.29771,0.22793 -29.8125,-2.78125 5.87932,-3.25593 11.61545,-6.75819 17.15625,-10.5625 10.55033,-7.24384 20.63612,-15.64995 27.21875,-26.625 3.29131,-5.48752 5.66763,-11.57025 6.5625,-17.90625 0.89486,-6.336 0.29948,-12.94051 -2.09375,-18.875 -2.18263,-5.412272 -5.83687,-10.198881 -10.34375,-13.90625 -4.50688,-3.707368 -9.85882,-6.349233 -15.5,-7.84375 C 139.27316,78.283991 136.39793,77.824901 133.5,77.625 Z m -5.1875,22.71875 c 1.47505,-0.0448 2.93755,0.0458 4.40625,0.25 2.93741,0.40835 5.80686,1.339 8.34375,2.875 2.53689,1.53601 4.72988,3.68516 6.21875,6.25 1.81473,3.12619 2.5346,6.82959 2.3125,10.4375 -0.22211,3.60791 -1.36389,7.12173 -3.0625,10.3125 -3.39723,6.38155 -8.87061,11.34435 -14.375,16.03125 -8.79366,7.48766 -18.03228,14.43449 -27.46875,21.09375 -2.99903,-2.19664 -5.75974,-4.70893 -8.0625,-7.625 -3.957862,-5.01198 -6.650808,-11.06116 -7.375,-17.40625 -0.955265,-8.36966 1.592692,-16.9836 6.4375,-23.875 4.8448,-6.89141 11.87157,-12.09344 19.65625,-15.3125 4.11088,-1.6999 8.54361,-2.89669 12.96875,-3.03125 z"
     transform="matrix(0.97855803,0,0,1.0076384,-16.9539,-28.552222)" />
  <path
     id="path15242"
     d="m 36,168 c 29.296493,-5.67472 57.43968,-17.23899 82.26203,-33.80214 10.71596,-7.15041 21.03617,-15.46466 27.71959,-26.47793 3.34172,-5.50663 5.71598,-11.64656 6.53721,-18.03527 0.82124,-6.38871 0.0502,-13.02906 -2.59102,-18.90391 -2.2475,-4.99903 -5.81542,-9.37267 -10.14869,-12.7289 -4.33327,-3.35622 -9.41808,-5.70419 -14.74099,-7.01116 -10.6458,-2.61395 -22.03983,-1.03163 -32.20925,3.06091 -12.071002,4.85781 -22.779227,13.3425 -29.622451,24.40946 -6.843223,11.06696 -9.64748,24.72213 -6.976482,37.45685 1.817436,8.66513 6.086409,16.74655 11.894686,23.42872 5.808276,6.68218 13.124484,11.98613 21.097967,15.83465 15.94696,7.69705 34.16862,9.51869 51.85227,8.60294 24.63373,-1.27567 48.99015,-7.68139 71.06417,-18.68983 L 212,107 c -20.53591,23.17851 -50.22576,38.01756 -81.09091,40.52941 -12.73048,1.03603 -25.96982,-0.0449 -37.40868,-5.72741 -5.71943,-2.84126 -10.91114,-6.82225 -14.869006,-11.83424 -3.957862,-5.01198 -6.650528,-11.07187 -7.37472,-17.41696 -0.955265,-8.36966 1.582804,-16.9779 6.427612,-23.8693 C 82.5291,81.79009 89.57361,76.58002 97.35829,73.36096 c 5.48118,-2.26653 11.48926,-3.59228 17.36407,-2.77557 2.93741,0.40835 5.81237,1.35573 8.34926,2.89173 2.53689,1.53601 4.72828,3.66927 6.21715,6.23411 1.81473,3.12619 2.54269,6.82592 2.32059,10.43383 -0.22211,3.60791 -1.36516,7.12545 -3.06377,10.31622 -3.39723,6.38155 -8.88077,11.36519 -14.38516,16.05209 C 90.34685,136.79023 64.030901,154.12533 36,168 Z"
     style="fill:#ffffff" />
  <path
     style="fill:url(#linearGradient15270)"
     d="m 36,167 c 30.096791,-8.40702 58.54101,-22.68759 83.26203,-41.80214 8.37222,-6.47349 16.48547,-13.6951 21.59296,-22.96406 2.55375,-4.63448 4.31024,-9.74687 4.78802,-15.01677 0.47778,-5.26989 -0.35676,-10.69942 -2.7152,-15.43628 -2.02762,-4.07242 -5.14831,-7.56952 -8.86177,-10.19744 -3.71347,-2.62793 -8.0081,-4.39702 -12.46086,-5.32909 -8.90551,-1.86415 -18.26835,-0.37722 -26.7763,2.84738 -10.24328,3.88232 -19.605475,10.36903 -26.19175,19.12221 -6.586276,8.75318 -10.261094,19.82311 -9.407183,30.7441 0.553757,7.08221 2.97346,13.97437 6.710083,20.01606 3.736622,6.04169 8.768736,11.24246 14.505914,15.43163 11.474356,8.37833 25.536116,12.61584 39.628926,14.41862 32.07327,4.10287 65.57066,-4.15278 92.06417,-22.68983 L 212,106 c -20.76647,22.91246 -50.30016,37.67346 -81.09091,40.52941 -13.28988,1.23268 -27.1382,0.22509 -39.14105,-5.61204 -6.00142,-2.91857 -11.460563,-7.03373 -15.64093,-12.23562 -4.180366,-5.20189 -7.049649,-11.50815 -7.870426,-18.13095 -1.197774,-9.66476 2.078706,-19.63575 8.121769,-27.27274 6.043067,-7.63699 14.685417,-13.0092 23.979837,-15.9171 5.12946,-1.60483 10.56452,-2.49775 15.89533,-1.8127 5.33081,0.68505 10.56122,3.06192 14.03515,7.16297 2.8144,3.32247 4.35282,7.63301 4.62475,11.97878 0.27193,4.34576 -0.6787,8.72015 -2.40884,12.71592 -3.46029,7.99156 -9.84051,14.31608 -16.34425,20.10744 C 92.58949,138.5025 65.326149,155.33339 36,167 Z"
     id="path14726" />
  <path
     style="opacity:0.3404255;fill:url(#radialGradient15282)"
     d="m 139,147 c 13.15849,-1.85142 26.10378,-5.21383 38.5,-10 11.0053,-4.24913 21.57748,-9.61913 31.5,-16 l 1,-10 c -9.69413,9.30408 -20.76939,17.16667 -32.75,23.25 -12.02728,6.10703 -24.96396,10.41926 -38.25,12.75 z"
     id="path15272" />
  <path
     id="rect4785"
     d="m 146.7255,31 43.91304,0 c 12.51,0 24,11.45841 24,23.5 l 0,77.5 -120.60869,0 52.69565,-101 z"
     style="fill:url(#radialGradient19214);enable-background:new" />
  <path
     id="path10688-3"
     d="m 90.01138,31.956913 33.86028,0 -40.23067,87.464897 -16.608085,-0.98277 22.978475,-86.482127 0,0 0,0 z"
     style="fill:url(#radialGradient5152-4);enable-background:new" />
</svg>
